<svg id="Layer_1" data-name="Layer 1" xmlns="http://www.w3.org/2000/svg" xmlns:xlink="http://www.w3.org/1999/xlink" viewBox="0 0 594.45 400.15"><defs><style>.cls-1{fill:none;}.cls-2{clip-path:url(#clip-path);}.cls-3{clip-path:url(#clip-path-2);}.cls-4{fill:#59183c;}.cls-5{fill:#701e47;}.cls-6{fill:#892050;}.cls-7{fill:#a52659;}.cls-8{fill:#bc2b5e;}.cls-9{fill:#d02f61;}.cls-10{fill:#ea385f;}.cls-11{fill:#f5647a;}.cls-12{fill:#fc8496;}</style><clipPath id="clip-path"><path class="cls-1" d="M331-429.58c-2.65,0-5.31.09-8,.24h-1.13c-2,.13-4,.3-6.06.53l-1.4.15-5.32.62c-15.83,1.87-31.44,4.2-47,6.42-23.83,3.42-47.52,6.6-71.7,7.44L187-414a310.72,310.72,0,0,1-34.8-1c-12.23-1.06-22.78-4.72-34.87-4.73-1.19,0-2.39,0-3.61.12-12.58.78-25,3.69-37.63,4.58-1.37.1-2.81.13-4.31.13-1.83,0-3.75-.05-5.75-.1s-4.06-.11-6.19-.11c-8.9,0-18.81.91-28.73,6.54,8.6,20.89,19.22,39.23,21.91,62.3a300.11,300.11,0,0,1,1.85,30.3q.07,6.52-.12,13.06a404.35,404.35,0,0,1-7.26,64.24Q45-225.49,41.76-212.47c-7,28.61-17.26,56.37-25.85,84.5C9.36-106.46,3.82-84.84,1.32-62.45c-7.08,65,5.37,132.28,22.11,195a878,878,0,0,1,24,129.66q3.7,33.58,5.14,67.38.85,18.91,1,37.84c.05,5.14.07,10.27.06,15.42q-.07,30.56-1.68,61.14c-.17,3.21-.34,6.41-.53,9.62l0,.34c-1,16.83-1.67,31.89-1.67,47.21a475.36,475.36,0,0,0,2.41,47.95c1.34,13.6,5.21,62.55,18.4,82.4C74.34,637.27,82.29,643,88.11,647c30.24,20.63,72.07,24.74,107.52,29q6.42.78,12.82,1.52Q230.31,680,252,682q21.06,1.88,42.09,3.13c31.89,1.9,63.87,2.56,96.39,1.52,62.29-2,127.43-.58,188.44-14.22C642.47,658.2,713.57,643,745,580.65c15.14-30,18.48-62.73,21-95.7,2.65-34.78,4.6-69,4.73-103.45v-7.74c-.06-16.56-.57-33.17-1.64-49.91-3.19-50.51-3.14-101.18-9.3-151.48-6.2-50.75-15.52-101-21.32-151.87-6.25-54.71-14.92-108.31-26-162.26-7.91-38.67-14.07-78.56-27.88-115.72-6.2-16.71-14.46-37.81-23-52.42-28.3-48.45-137.45-87.89-183.73-99.52q-14.43-3.61-29-6.49l-5.06-1c-18.21-3.4-36.5-5.92-55.1-7.66-19.16-1.81-37.23-4.94-56-5Z"/></clipPath><clipPath id="clip-path-2"><rect class="cls-1" x="-0.75" width="595.2" height="400.15"/></clipPath></defs><title>Artboard 1</title><g class="cls-2"><g class="cls-3"><path class="cls-4" d="M20-414C28.64-393.14,39.41-374.8,42-351.76c5.11,44.56-.62,90.42-11.36,133.78C18.2-167.51-4.45-119.67-10.16-68c-7.16,65,5.38,132.27,22.32,195C40.39,232,46.8,340.35,40.39,448.46c-2,33.41-2.8,59.83.75,95.19,1.34,13.59,5.26,62.54,18.57,82.4,3.91,5.74,11.95,11.48,17.82,15.51,30.58,20.59,72.78,24.7,108.53,29,66,7.89,130.24,12.76,196.76,10.66,62.91-2,128.69-.58,190.31-14.23,64.21-14.22,136-29.46,167.74-91.77,15.3-30,18.67-62.73,21.23-95.7,4.19-54.12,6.64-106.94,3.15-161.12-3.23-50.5-3.18-101.17-9.4-151.47-6.28-50.75-15.67-101-21.51-151.87C728-39.69,719.28-93.31,708.12-147.24c-8.06-38.68-14.2-78.57-28.22-115.73-6.26-16.7-14.6-37.82-23.18-52.41-28.5-48.45-138.7-87.9-185.51-99.55a596.76,596.76,0,0,0-90-15.12c-25.13-2.32-48.38-6.89-73.66-4.18-55.75,6-108.39,18.63-165.24,13.76-13.64-1.17-25.11-5.47-38.88-4.61-12.74.78-25.29,3.7-38,4.59-11.91.83-28.67-3-45.44,6.46"/><path class="cls-5" d="M-47.91,379.62c11.06-21.35,17.12-45.34,31.29-65.22,11.31-15.87,38-48.25,60-50.1,20.42-1.74,43.17,19.77,62.28,26,25.54,8.28,40.32,6.82,62.52-7.09,113.53-71,165.57,105.18,107.91,180.4-27.56,35.95-104,60.8-142.46,30.56-36.77-28.87-47.53-77.5-95.42-96.62-24.19-9.66-45.1,5.11-67.37-1.34-9.29-2.74-17-5.58-18.71-16.59"/><path class="cls-5" d="M402.3-267.33c-12.89-32.76-39.54-56.33-61.12-83.84C318.53-380,293.58-423.09,252-424.32c-30.36-.92-78.9,15-96.05,41-11.73,17.83-6.93,43.56-.55,62.79,7.41,22.34,17.58,38.08,16.93,62.1-.34,13-2.83,23.42-7.19,32.48-6.38-6.18-12.8-12.24-17.24-18.91C122.56-283,133.31-345.92,99-378.25A73.6,73.6,0,0,0,37.2-397.32c-29.7,4.66-69,26.67-79.12,55.1-9,25.44.8,48.48-.21,90.23C-60.83-236.13-63-170.7-54.68-149.29c21.82,56.23,87-.68,121.46,25.24l.31.24A18.72,18.72,0,0,1,74-106.34c-2,15,.64,31.38,9.53,49.73C96.61-29.8,116.64-12.47,140.81,4.5c19.74,13.85,22.46,16.12,17.87,38.34-18.81,91,39.92,166.33,98.34,230,3,20.38,15,44.13,39.33,31.83,35.92-37,51.82-108.79,66.67-156.71,10.07-32.48,23.16-63.73,29.22-97.29C404-14.78,411.44-76.8,413.12-143.14c1-39.86,4.1-86.35-10.82-124.19"/><path class="cls-6" d="M243.85,41.09c0-53,1.61-101.05-39.5-141.52-12.44-12.24-29-17.39-43.37-27.07-25.25-17.05-22.4-32.43-24.38-59.64-4.54-63.1-87.06-56-105.1-110.62C17.86-338.86,48.67-381.45,78-407.59c69.39-61.74,170.69-54.88,249.31-15.43C432.8-370.12,525.81-281.16,578-177.5c40.72,81,46.24,179.44,49.72,267.35,3.58,88.8,6.55,166.32-35.24,242C553.94,401.56,485.35,438.21,403,435.91c-79.29-2.22-164.67,3.77-225.25-54.55-45-43.44-97.61-110.73-84.73-176.44,10.92-55.83,29.56-98.58,88.2-110.35,45.48-9.13,57-13.24,62.59-53.48"/><path class="cls-7" d="M353-332.41c17.15,33.09-5.48,84.49-34.57,105-37.75,26.6-83.75,26.32-118.95,58.57-22.35,20.51-45.36,55.76-44.22,86.79,1.7,46.57,84.91,92.84,60.27,137.59-7.53,13.64-25.15,25-37.84,33.86-45.77,31.88-71.64,86.46-52.41,141.43,12.47,35.76,49,53.57,52.88,95.22,2.22,24-12.48,37.21-28.73,52.8-15,14.42-26.88,25.16-47,14.26s-30.75-24.87-57.56-19.9c-42.75,7.91-60,55.1-51.07,93.09,7.86,33.6,51.77,54,81.46,63.95,80.38,26.88,170.29,18.14,243.55-22,66.1-36.21,122.7-111,150-179.16,11.19-27.92,13.26-57.79,23.3-85.9q.4-16.12,13.35-21.86a1242,1242,0,0,0-11.71-223c-13.09-102.94-28.33-167.77-73.41-251-6.09-11.06-46.32-69-67.33-79.74"/><path class="cls-8" d="M-32.85,583.66c-14.59-37.71,1.51-73,25.54-103.38C5.94,463.55,19.57,453.2,40.37,447c23.39-7,54.84-8.89,76.87-13,29.36-5.52,126.22-18,137.24-55.87,11.59-39.78-21.17-76.43-31.23-112.41-6.13-21.91-10-50.82-4.89-73.5,7-31.18,30-42.51,56.05-57.26,79.43-45,145.77-151.68,39.82-205.65-33-16.8-81.23-29.34-70.84-76.61,7.3-33.26,45.62-42.64,41.89-81.32-2.86-29.77-27-57.87-47-80.35-30-33.64-97.29-60.08-77.44-114.67,23.21-63.85,96.49-125,150.68-162.62a970.58,970.58,0,0,1,151.65-86.34c95.82-43.56,225.27-51.51,325.58-22.21,42.4,12.39,83,31.73,121.91,52.26,56.27,29.7,107.14,61.15,156.1,101.38,27.74,22.74,54.58,46.53,81.53,70.14q25.93,23.73,53.29,45.94l14.11,4,52.65,72.32a1618.17,1618.17,0,0,1,168.56,507.87q35.28,73.5-4.75,127.74a429.7,429.7,0,0,0-15.31,51.88c-22.62,74.86-64.63,135.18-127.21,183.5C1081.44,682.94,831.71,765,566.31,759.09c-128.86-2.88-263.5-21.84-386.55-59.42-39-11.9-80.56-23.18-113.29-48.23-13-9.93-23-24.45-35.68-34.23C19.26,608.28,4.4,604.66-6.95,595c-7.64-6.51-11.86-14.55-25.9-11.35"/><path class="cls-9" d="M222,612.92C158,564.08,97.9,503.47,123.23,418.05c9.41-31.78,31.09-61.31,61-77.74,25.74-14.06,58.25-13.24,82.88-30.71,32-22.66,43.14-58.77,43.29-95.16.09-23.82-.52-42,8.06-64.18,12.57-32.4,50.43-49.43,61.68-80.49,9.33-25.79-4-56-2.14-82.11,3.27-46.41,49.1-61.42,81.34-86.3,34.94-26.88,73.71-58.49,82.45-102.84,7.41-37.63.44-94.24-26.54-123.75C485.22-358.11,433.62-377.3,390.8-363c-45.63,15.21-52.42,53.15-82.1,85.9-28.47,31.46-63.44,51.39-101.86,19.41-29.4-24.46-37.3-42.34-79-40.32-18.6.89-41.27,5-59.13,4.25-23.75-1-43-23.66-59.3-38.23C-25-362.92-65.1-399.37-65.81-448.54c-.2-14.15,3.55-36.29,7.46-49.73,22.51-77.79,96.17-144.82,164.46-185.33,119.13-70.64,251.65-77.86,387.66-64.59,233.73,22.67,466.41,123.83,612,307.42,81.08,102.26,133,232.27,147.56,359.78,12.1,106.17-5.16,221.47-28.56,325.15-27.48,121.75-56.29,254.17-146,348.39-27.22,28.57-58.13,50.07-92.16,70.39C937.31,692.42,884,703.26,829.39,720.28c-33.18,10.34-66.26,12-101.14,14.09-95.15,5.72-244.6,2.18-335-45.27-13.3-7-26.38-17-39-24.72a227.73,227.73,0,0,0-59.14-24.53c-21.6-5.76-42.51-22.84-73.11-26.93"/><path class="cls-10" d="M370,519.66c-22-26.55-46.67-49.72-60.23-81.37-13.13-30.59-24.48-65.86-26.44-99.22-3.51-59.49,41.11-96.22,71.47-143.68,14.78-23.13,33-45.69,33.72-74,.91-33.4-26-61.42-37.1-91.92C337.28-9.44,339.59-55.61,365.6-89c18.81-24.19,45.3-34.73,68.26-53.61,39.24-32.25,78.69-96.62,39.78-141.91-18.92-22-48.19-39.24-77.1-43-36.81-4.74-83.57,10.26-113.65-15C261-361,245.56-385.94,221.8-402.93c-20.23-14.47-42-17.47-63.76-28.46-27.2-13.74-48.68-42.41-53.42-72-8.53-53.21,45.43-100.12,84.33-129,127-94.16,277.1-121.94,434.53-120.33,139.23,1.43,238.22,54.65,344,135.93L985-603.41q11.28,16.86,29.94,13.58A1611.59,1611.59,0,0,1,1200.86-173.2q95.55,234.39,95.42,483C1251.41,414.59,1190,517.89,1084.12,574.24c-94.24,50.19-201.22,69.69-307.19,79-89.95,8-157.24-8.17-232.65-55.26-28.13-17.58-47.89-36.48-80.64-45.36-17.07-4.62-35.52-6.85-52-11.38C396.11,537,386.31,526.5,370,519.66"/><path class="cls-11" d="M302.2,554.41c-21.58-27.81-39.4-60.2-40.07-95.76-1-53.47,31-71.1,75.6-81.1,36-8.06,83.19-12.47,100-50,27-60.22-53.43-111.33,7.25-163.75,18.38-15.88,39.93-29.63,47.51-53.55,2.91-9.2,4.43-22.73,4.53-36.92A120.06,120.06,0,0,1,568.79-35.46c24.76-11,48.05-24.19,60.56-51.5,17.47-38.22,26.37-74.44,24.88-116.6-1.21-34.11-25.2-87.36-63.8-96.07-41-9.3-78.51,14.43-117.26,20.07-16.41,2.37-26.07-1.95-38.72-11.39-24.57-18.33-49.23-24.83-75-38.65-32.58-17.47-44.77-59.36-49.56-92.51-11.23-77.7,26.18-124.31,93.2-164.11,87.73-52.09,182.78-58.42,278.28-21.24,132.57,51.6,198.91,191.75,237.48,318.26C950.45-185.62,959-72.41,952.72,35.1c-4.38,74.78-41.26,147.43-77.87,212.65-19.73,35.13-33.21,72.75-53.18,107.73-7.11,12.46-12,24.91-17.88,37.1q1.2,25.77-34.07,37.12a824.83,824.83,0,0,1-142.14,103c-35.51,21.92-49.1,33.49-86.59,35.76-9.24.57-18.82.82-28,.76-20.82-.17-40.08-2-60.88.28-35.71,3.8-62.6,0-97.29-5.54-15.59-2.51-32.46,0-52.58-9.55"/><path class="cls-12" d="M230.68,594.64c-16.79-61.73,14.1-136.11,81.36-152.4,34.57-8.38,76.85-4.75,91-44.7,10.85-30.69-3.76-61.34,16-91.14,24.91-37.63,81.91-30.3,116.48-53.53,34-22.84,34.09-47.22,34-84.67,0-20.63-.21-39.79,7.48-59,13.69-34.18,40-44,63.67-66.74,26.14-25.08,34.27-63.72,40-97.91,8.9-52.66,7-130.69-38.59-168.79-34.13-28.57-91.51-14.56-102.76-63.29-6-26.21-15.47-33.33-39.55-50-14-9.71-28.22-18-39.31-31.36-8.06-9.76-11.76-28.22-21.91-32.9,13.17-52.57,84.67-106.87,131.35-124,46.18-17,66.3-13.52,106.91,2.79,51.07,20.54,95.06,74.16,128.71,114.75C854.71-348.94,889.83-275,920.4-205.14,951.1-135,985.23-62.3,1008.31,10.53,1031,82,1041.64,164.45,1040,239.16c-1.55,67.66-54,126.89-85.14,184-26.25,48.25-49.88,90.29-92.15,127-45.5,39.53-100.87,72.31-156.08,97.5-54,24.62-114.48,32.34-173.16,38.58-57.33,6.08-118.77,19.52-176.45,14-34.3-3.25-69.15-8.87-88.7-38.41-10.67-16.13-27-39.13-37.59-67.24"/></g></g></svg>