<svg id="Layer_1" data-name="Layer 1" xmlns="http://www.w3.org/2000/svg" viewBox="0 0 500 500"><defs><style>.cls-1{fill:#fd0001;}.cls-2{fill:#fff;}</style></defs><rect class="cls-1" x="-0.05" width="500" height="500"/><polygon class="cls-2" points="93.96 95.93 126.97 95.93 126.97 370.3 175.7 370.3 175.7 404.07 93.96 404.07 93.96 95.93"/><polygon class="cls-2" points="323.43 95.93 406.7 95.93 406.7 129.7 356.44 129.7 356.44 228.32 403.25 228.32 403.25 264.39 356.44 264.39 356.44 369.92 406.7 369.92 406.7 404.07 323.43 404.07 323.43 95.93"/><path class="cls-2" d="M204.48,404.07V370.3h10.36c13.43,0,36.45-9.59,39.91-30.7,3.45-20.72.76-35.69-25.71-81l-.77-.76c-18.42-30.32-36.07-56.41-29.55-97.85,7.29-44.9,42.21-64.85,74.06-64.09h10.36V129.7H272.78c-13.43,0-37.22,9.21-40.29,30.7-3.45,20.72-1.15,34.15,24.94,78.66l.77,1.15c19.19,31.09,36.45,58.33,29.93,99.39-7.29,44.9-41.44,64.85-73.67,64.08l-10,.39"/></svg>